# xmcd CD database file
#
# Track frame offsets:
#	150
#	23833
#	43933
#	64813
#	89593
#	102038
#	114768
#	126188
#	140750
#	168570
#
# Disc length: 2411 seconds
#
# Revision: 0
# Processed by: cddbd v1.5.1PL0 Copyright (c) Steve Scherf et al.
# Submitted via: CDex 1.51
#
DISCID=8909690a
DTITLE=All Natural Lemon and Lime Flavors - Straight Blue Line
DYEAR=1900
DGENRE=Rock
TTITLE0=Repetitive Monotonous
TTITLE1=Catcher
TTITLE2=Spaun
TTITLE3=Exploded View
TTITLE4=Fayaway
TTITLE5=Purple Puddles
TTITLE6=The Number Know Its Name
TTITLE7=Rhombus
TTITLE8=I Am Where You Are
TTITLE9=Spin Cycle
EXTD=
EXTT0=
EXTT1=
EXTT2=
EXTT3=
EXTT4=
EXTT5=
EXTT6=
EXTT7=
EXTT8=
EXTT9=
PLAYORDER=
